<svg>
<!-- NavBar - Menu-Open -->
<symbol xmlns="http://www.w3.org/2000/svg" id="menu-open" height="24" viewBox="0 -960 960 960" width="24"><path d="M120-240v-80h520v80H120Zm664-40L584-480l200-200 56 56-144 144 144 144-56 56ZM120-440v-80h400v80H120Zm0-200v-80h520v80H120Z"/></symbol>

<!-- NavBar - Menu -->
<symbol xmlns="http://www.w3.org/2000/svg" id="menu" height="24" viewBox="0 -960 960 960" width="24"><path d="M120-240v-80h720v80H120Zm0-200v-80h720v80H120Zm0-200v-80h720v80H120Z"/></symbol>

<!-- NavBar - Search -->
<symbol xmlns="http://www.w3.org/2000/svg" id="search" height="24" viewBox="0 -960 960 960" width="24"><path d="M784-120 532-372q-30 24-69 38t-83 14q-109 0-184.5-75.5T120-580q0-109 75.5-184.5T380-840q109 0 184.5 75.5T640-580q0 44-14 83t-38 69l252 252-56 56ZM380-400q75 0 127.5-52.5T560-580q0-75-52.5-127.5T380-760q-75 0-127.5 52.5T200-580q0 75 52.5 127.5T380-400Z"/></symbol>

<!-- NavBar - Upcoming -->
<symbol xmlns="http://www.w3.org/2000/svg" id="upcoming" height="24" viewBox="0 -960 960 960" width="24"><path d="M383-480 200-664l56-56 240 240-240 240-56-56 183-184Zm264 0L464-664l56-56 240 240-240 240-56-56 183-184Z"/></symbol>

<!-- NAvBar - Today -->
<symbol xmlns="http://www.w3.org/2000/svg" id="today" height="24" viewBox="0 -960 960 960" width="24"><path d="M360-300q-42 0-71-29t-29-71q0-42 29-71t71-29q42 0 71 29t29 71q0 42-29 71t-71 29ZM200-80q-33 0-56.5-23.5T120-160v-560q0-33 23.5-56.5T200-800h40v-80h80v80h320v-80h80v80h40q33 0 56.5 23.5T840-720v560q0 33-23.5 56.5T760-80H200Zm0-80h560v-400H200v400Zm0-480h560v-80H200v80Zm0 0v-80 80Z"/></symbol>

<!-- NavBar - Sticky Notes -->
<symbol xmlns="http://www.w3.org/2000/svg" id="sticky-notes" height="24" viewBox="0 -960 960 960" width="24"><path d="M200-200h360v-200h200v-360H200v560Zm0 80q-33 0-56.5-23.5T120-200v-560q0-33 23.5-56.5T200-840h560q33 0 56.5 23.5T840-760v400L600-120H200Zm80-280v-80h200v80H280Zm0-160v-80h400v80H280Zm-80 360v-560 560Z"/></symbol>

<!-- Common - Add -->
<symbol xmlns="http://www.w3.org/2000/svg" id="add" height="24" viewBox="0 -960 960 960" width="24"><path d="M440-440H200v-80h240v-240h80v240h240v80H520v240h-80v-240Z"/></symbol>

<!-- Common - Add -->

<symbol xmlns="http://www.w3.org/2000/svg" id="add-s" height="20" viewBox="0 -960 960 960" width="20"><path d="M440-440H200v-80h240v-240h80v240h240v80H520v240h-80v-240Z"/></symbol>

<!-- Common - Cancel -->
<symbol xmlns="http://www.w3.org/2000/svg" id="cancel" height="20" viewBox="0 -960 960 960" width="20"><path d="m256-200-56-56 224-224-224-224 56-56 224 224 224-224 56 56-224 224 224 224-56 56-224-224-224 224Z"/></symbol>

<!-- Common - Add Box -->
<symbol xmlns="http://www.w3.org/2000/svg" id="add-box" height="24" viewBox="0 -960 960 960" width="24"><path d="M440-280h80v-160h160v-80H520v-160h-80v160H280v80h160v160ZM200-120q-33 0-56.5-23.5T120-200v-560q0-33 23.5-56.5T200-840h560q33 0 56.5 23.5T840-760v560q0 33-23.5 56.5T760-120H200Zm0-80h560v-560H200v560Zm0-560v560-560Z"/></symbol>
</svg>